# xmcd
#
# Track frame offsets: 
#        150
#        10174
#        20827
#        26679
#        36244
#        44662
#        53425
#        65130
#        74348
#        84607
#        92305
#        102169
#        111264
#        120911
#        132611
#        141469
#        152647
#        161948
#
# Disc length: 2328 seconds
#
# Revision: 0
# Processed by: cddbd v1.5.2PL0 Copyright (c) Steve Scherf et al.
# Submitted via: ExactAudioCopy v0.99pb4
#
DISCID=fd091612
DTITLE=Johnny Cash - Hey Good Lookin' - (FabFour Box CD3)
DYEAR=1959
DGENRE=Country
TTITLE0=Goodbye Little Darlin'
TTITLE1=I Just Thought You'd Like to Know
TTITLE2=You Tell Me
TTITLE3=Just About Time
TTITLE4=I Forgot to Remember to Forget
TTITLE5=Katy Too
TTITLE6=Thanks a Lot
TTITLE7=Luther Played the Boogie
TTITLE8=You Win Again
TTITLE9=Hey Good Lookin'
TTITLE10=I Could Never Be Ashamed of You
TTITLE11=I Got Stripes
TTITLE12=It Was Jesus
TTITLE13=I Saw a Man
TTITLE14=Are all the Children In
TTITLE15=The Old Account
TTITLE16=Lead Me Gently Home
TTITLE17=My Grandfather's Clock
EXTD=
EXTT0=
EXTT1=
EXTT2=
EXTT3=
EXTT4=
EXTT5=
EXTT6=
EXTT7=
EXTT8=
EXTT9=
EXTT10=
EXTT11=
EXTT12=
EXTT13=
EXTT14=
EXTT15=
EXTT16=
EXTT17=
PLAYORDER=
